<?xml version="1.0" encoding="utf-8"?>
<!-- Generator: Adobe Illustrator 22.0.1, SVG Export Plug-In . SVG Version: 6.00 Build 0)  -->
<svg version="1.1" id="Layer_1" xmlns="http://www.w3.org/2000/svg" xmlns:xlink="http://www.w3.org/1999/xlink" x="0px" y="0px"
	 viewBox="0 0 2499.6 2441" style="enable-background:new 0 0 2499.6 2441;" xml:space="preserve">
<style type="text/css">
	.st0{fill-rule:evenodd;clip-rule:evenodd;fill:#FFFFFF;}
	.st1{fill:#FFFFFF;}
</style>
<g>
	<path class="st0" d="M1249.8,558.3c-374.1,0-677.4,304-677.4,679c0,300,194.1,554.5,463.3,644.3c33.9,6.3,46.3-14.7,46.3-32.7
		c0-16.2-0.6-69.7-0.9-126.4c-188.5,41.1-228.2-80.1-228.2-80.1c-30.8-78.5-75.2-99.4-75.2-99.4c-61.5-42.1,4.6-41.3,4.6-41.3
		c68,4.8,103.8,70,103.8,70c60.4,103.8,158.5,73.8,197.1,56.4c6.1-43.9,23.6-73.8,43-90.8c-150.5-17.2-308.6-75.4-308.6-335.6
		c0-74.1,26.5-134.7,69.8-182.3c-7-17.1-30.2-86.2,6.6-179.7c0,0,56.9-18.2,186.3,69.6c54-15,112-22.6,169.6-22.9
		c57.6,0.3,115.6,7.8,169.7,22.9c129.3-87.8,186.1-69.6,186.1-69.6c36.9,93.5,13.7,162.6,6.6,179.7c43.4,47.6,69.7,108.1,69.7,182.3
		c0,260.8-158.5,318.2-309.3,335c24.3,21.1,45.9,62.4,45.9,125.7c0,90.9-0.8,164-0.8,186.3c0,18.1,12.2,39.2,46.5,32.6
		c269-89.9,462.9-344.3,462.9-644.2C1927.2,862.3,1623.9,558.3,1249.8,558.3z"/>
	<path class="st1" d="M829,1533.2c-1.5,3.4-6.8,4.4-11.6,2.1c-4.9-2.2-7.7-6.8-6.1-10.2c1.5-3.5,6.8-4.4,11.7-2.1
		C827.9,1525.1,830.7,1529.8,829,1533.2L829,1533.2z M820.6,1527"/>
	<path class="st1" d="M856.4,1563.8c-3.2,3-9.6,1.6-13.8-3.1c-4.4-4.7-5.3-11.1-2-14.1c3.3-3,9.5-1.6,13.9,3.1
		C858.9,1554.5,859.8,1560.8,856.4,1563.8L856.4,1563.8z M849.9,1556.9"/>
	<path class="st1" d="M883.1,1602.9c-4.2,2.9-10.9,0.2-15.1-5.9c-4.2-6-4.2-13.3,0.1-16.2c4.2-2.9,10.9-0.3,15.1,5.7
		C887.3,1592.7,887.3,1600,883.1,1602.9L883.1,1602.9z M883.1,1602.9"/>
	<path class="st1" d="M919.7,1640.7c-3.7,4.1-11.6,3-17.4-2.6c-5.9-5.5-7.6-13.2-3.9-17.3c3.8-4.1,11.7-3,17.5,2.6
		C921.9,1628.8,923.7,1636.7,919.7,1640.7L919.7,1640.7z M919.7,1640.7"/>
	<path class="st1" d="M970.2,1662.7c-1.6,5.3-9.3,7.7-16.9,5.5c-7.7-2.3-12.7-8.6-11.1-13.9c1.6-5.4,9.2-7.9,17-5.5
		C966.7,1651.1,971.8,1657.2,970.2,1662.7L970.2,1662.7z M970.2,1662.7"/>
	<path class="st1" d="M1025.6,1666.7c0.2,5.6-6.3,10.2-14.4,10.3c-8.1,0.2-14.7-4.3-14.7-9.9c0-5.7,6.4-10.2,14.5-10.4
		C1019,1656.7,1025.6,1661.2,1025.6,1666.7L1025.6,1666.7z M1025.6,1666.7"/>
	<path class="st1" d="M1077.2,1657.9c1,5.5-4.6,11.1-12.6,12.6c-7.9,1.4-15.1-1.9-16.1-7.3c-1-5.6,4.7-11.2,12.6-12.7
		C1069,1649.1,1076.2,1652.4,1077.2,1657.9L1077.2,1657.9z M1077.2,1657.9"/>
</g>
</svg>
