<?xml version="1.0" encoding="utf-8"?>
<!-- Generator: Adobe Illustrator 22.0.1, SVG Export Plug-In . SVG Version: 6.00 Build 0)  -->
<svg version="1.1" id="Layer_1" xmlns="http://www.w3.org/2000/svg" xmlns:xlink="http://www.w3.org/1999/xlink" x="0px" y="0px"
	 viewBox="0 0 2499.6 2441" style="enable-background:new 0 0 2499.6 2441;" xml:space="preserve">
<style type="text/css">
	.st0{fill:#FFFFFF;}
</style>
<path class="st0" d="M1665.1,520.5H834.5c-163.8,0-296.7,130.6-296.7,291.7v816.7c0,161.1,132.8,291.7,296.7,291.7h830.7
	c163.9,0,296.7-130.6,296.7-291.7V812.2C1961.8,651.1,1829,520.5,1665.1,520.5z M1012.5,1628.8h-178V987.2h178V1628.8z M923.5,913.2
	c-57.3,0-103.8-46.1-103.8-102.9c0-56.8,46.5-102.9,103.8-102.9c57.3,0,103.8,46.1,103.8,102.9
	C1027.3,867.1,980.8,913.2,923.5,913.2z M1724.5,1628.8h-178v-326.9c0-196.5-237.3-181.6-237.3,0v326.9h-178V987.2h178v103
	c82.8-150.8,415.3-162,415.3,144.4V1628.8z"/>
</svg>
